<?xml version="1.0" encoding="utf-8"?>
<svg viewBox="0 0 144 65" xmlns="http://www.w3.org/2000/svg" xmlns:bx="https://boxy-svg.com" height="65px">
  <defs>
    <radialGradient id="gradient-1" gradientUnits="userSpaceOnUse" cx="152.286" cy="126.898" r="330" gradientTransform="matrix(0.638467, -1.091841, 1.097297, 0.641658, 52.656119, 215.401816)">
      <stop offset="0" style="stop-color: rgb(0, 170, 237);"/>
      <stop offset="1" style="stop-color: rgb(0, 145, 202);"/>
    </radialGradient>
    <linearGradient id="gradient-0" gradientUnits="userSpaceOnUse" x1="330" y1="0" x2="330" y2="660" gradientTransform="matrix(0.980745, -0.195296, 0.195753, 0.983035, -58.734308, 67.665557)">
      <stop offset="0" style="stop-color: rgb(152, 226, 255);"/>
      <stop offset="1" style="stop-color: rgb(78, 193, 239);"/>
    </linearGradient>
    <bx:grid x="0" y="0" width="190" height="80"/>
  </defs>
  <g transform="matrix(0.341978, 0, 0, 0.341978, -0.561026, 0.246868)">
    <g transform="matrix(0.283555, 0, 0, 0.283555, 3.122751, 1.671054)">
      <title>Logo</title>
      <circle style="fill: url(&quot;#gradient-1&quot;); stroke: url(&quot;#gradient-0&quot;); paint-order: fill; stroke-width: 10.3125px;" cx="329.929" cy="326.968" r="330">
        <title>Main circle</title>
      </circle>
      <g transform="matrix(0.258819, 0.965926, -0.965926, 0.258819, 56.564995, 63.045212)" style="transform-origin: 239.896px 267.565px;">
        <title>Inner</title>
        <path style="stroke-width: 10.3125px; fill: rgb(212, 243, 255); stroke: rgb(99, 212, 254);" d="M 205.274 220.834 L 68.726 301.23 L 55.946 315.75 L 65.266 334.735 L 107.14 371.056 L 150.607 394.362 L 164.075 390.082 L 170.242 375.078 L 205.274 220.834 Z"/>
        <path style="stroke-width: 10.3125px; fill: rgb(212, 243, 255); stroke: rgb(99, 212, 254);" d="M 224.352 223.999 L 186.381 387.556 L 188.856 401.839 L 200.85 405.675 L 259.971 404.52 L 307.883 387.979 L 314.71 377.584 L 306.955 361.599 L 224.352 223.999 Z"/>
        <path style="stroke-width: 10.3125px; fill: rgb(212, 243, 255); stroke: rgb(99, 212, 254);" d="M 239.109 214.749 L 321.98 350.792 L 332.499 365.92 L 347.102 364.611 L 387.166 324.062 L 415.896 272.066 L 412.586 260.052 L 402.088 255.453 L 239.109 214.749 Z"/>
        <path style="stroke-width: 10.3125px; fill: rgb(212, 243, 255); stroke: rgb(99, 212, 254);" d="M 246.194 197.249 L 394.828 236.127 L 415.804 240.675 C 415.804 240.675 425.611 231.259 425.611 231.332 C 425.611 231.404 425.673 168.25 425.673 168.25 L 407.626 114.047 L 398.18 106.55 L 382.979 110.16 L 246.194 197.249 Z"/>
        <path style="stroke-width: 10.3125px; fill: rgb(212, 243, 255); stroke: rgb(99, 212, 254);" d="M 421.445 80.924 L 444.246 133.724 L 454.156 198.517 L 447.525 261.104 L 424.971 316.492 L 384.072 368.87 L 347.215 398.25 L 301.778 418.689 L 246.452 432.591 L 188.062 431.797 L 143.182 420.133 L 85.7 389.598 L 53.916 362.022 L 32.336 337.416 L 21.856 319.421 L 2.206 330.703 L 17.746 355.793 L 45.896 386.061 L 86.907 419.494 L 131.116 441.893 L 180.245 460.125 L 239.893 465.921 L 305.058 454.742 L 362.313 428.744 L 416.453 381.74 L 447.277 339.902 L 471.615 276.882 L 477.586 224.175 C 477.586 224.175 475.214 166.105 475.214 166.157 C 475.214 166.208 463.86 117.564 463.86 117.564 L 448.969 84.832 L 439.904 69.209 L 421.445 80.924 Z"/>
        <path style="stroke-width: 10.3125px; fill: rgb(212, 243, 255); stroke: rgb(99, 212, 254);" d="M 237.119 172.798 L 227.683 145.727 L 228.312 118.657 L 240.192 105.653 L 252.453 106.004 L 257.424 118.637 L 250.143 138.942 L 237.119 172.798 Z"/>
        <path style="stroke-width: 10.3125px; fill: rgb(212, 243, 255); stroke: rgb(99, 212, 254);" d="M 219.206 176.603 L 201.448 149.739 L 178.08 136.652 L 156.537 131.682 L 141.346 141.943 L 144.255 156.432 L 157.032 162.547 L 181.493 160.34 L 219.206 176.603 Z"/>
        <path style="stroke-width: 10.3125px; fill: rgb(212, 243, 255); stroke: rgb(99, 212, 254);" d="M 213.359 192.742 L 187.464 182.316 L 163.23 183.935 L 158.207 198.002 L 168.241 210.325 L 184.741 201.951 L 213.359 192.742 Z"/>
      </g>
    </g>
    <g transform="matrix(1, 0, 0, 1, -3.848826, -4.564161)" style="">
      <title>Text</title>
      <path d="M 224.881 62.515 L 224.553 57.355 L 249.287 53.997 Q 248.959 49.493 246.175 46.585 Q 243.39 43.678 238.476 43.678 Q 233.398 43.678 230.081 47.323 Q 226.764 50.967 226.764 57.765 L 226.764 59.567 Q 227.338 66.119 231.064 69.517 Q 234.791 72.916 241.261 72.916 Q 244.7 72.916 247.485 71.77 Q 250.27 70.623 251.908 69.313 Q 252.809 69.886 253.341 70.664 Q 253.873 71.442 253.873 72.425 Q 253.873 73.981 252.112 75.332 Q 250.352 76.684 247.444 77.503 Q 244.537 78.322 240.933 78.322 Q 234.627 78.322 229.999 76.029 Q 225.372 73.735 222.874 69.19 Q 220.376 64.644 220.376 58.092 Q 220.376 53.424 221.727 49.78 Q 223.079 46.135 225.495 43.596 Q 227.911 41.057 231.269 39.706 Q 234.627 38.355 238.558 38.355 Q 243.554 38.355 247.362 40.484 Q 251.171 42.613 253.341 46.422 Q 255.511 50.23 255.511 55.144 Q 255.511 56.946 254.692 57.724 Q 253.873 58.502 252.399 58.666 Z M 278.523 72.998 Q 281.963 72.998 284.215 72.302 Q 286.467 71.606 287.45 70.951 L 287.45 59.075 L 277.294 60.14 Q 273.035 60.468 270.988 62.024 Q 268.94 63.58 268.94 66.528 Q 268.94 69.558 271.356 71.278 Q 273.773 72.998 278.523 72.998 Z M 278.441 38.355 Q 285.566 38.355 289.743 41.549 Q 293.92 44.743 293.92 51.622 L 293.92 71.033 Q 293.92 72.834 293.224 73.776 Q 292.528 74.718 291.135 75.537 Q 289.17 76.602 285.894 77.503 Q 282.618 78.404 278.523 78.404 Q 270.824 78.404 266.606 75.373 Q 262.388 72.343 262.388 66.61 Q 262.388 61.287 265.951 58.461 Q 269.514 55.635 275.82 55.062 L 287.45 53.916 L 287.45 51.622 Q 287.45 47.527 284.993 45.644 Q 282.536 43.76 278.359 43.76 Q 275.001 43.76 271.93 44.743 Q 268.859 45.726 266.483 46.954 Q 265.828 46.381 265.296 45.603 Q 264.764 44.825 264.764 44.006 Q 264.764 41.876 267.139 40.73 Q 269.35 39.583 272.257 38.969 Q 275.165 38.355 278.441 38.355 Z M 332.575 67.183 Q 332.575 72.425 328.726 75.373 Q 324.876 78.322 317.587 78.322 Q 311.363 78.322 307.432 76.397 Q 303.5 74.472 303.5 72.179 Q 303.5 71.196 304.033 70.255 Q 304.565 69.313 305.63 68.739 Q 307.841 70.296 310.789 71.606 Q 313.738 72.916 317.505 72.916 Q 326.023 72.916 326.023 67.183 Q 326.023 64.808 324.59 63.293 Q 323.156 61.778 320.372 61.123 L 313.574 59.321 Q 308.578 58.092 306.285 55.513 Q 303.992 52.933 303.992 49.083 Q 303.992 44.743 307.513 41.549 Q 311.035 38.355 318.242 38.355 Q 322.092 38.355 324.958 39.133 Q 327.825 39.911 329.422 41.18 Q 331.019 42.45 331.019 43.924 Q 331.019 44.988 330.486 45.807 Q 329.954 46.626 329.053 47.036 Q 328.07 46.381 326.555 45.603 Q 325.04 44.825 322.993 44.292 Q 320.945 43.76 318.488 43.76 Q 314.884 43.76 312.673 45.152 Q 310.462 46.545 310.462 49.083 Q 310.462 50.885 311.731 52.237 Q 313.001 53.588 315.785 54.243 L 321.436 55.635 Q 327.006 56.946 329.79 59.771 Q 332.575 62.597 332.575 67.183 Z M 348.957 68.821 Q 347.564 66.201 345.599 61.737 Q 343.633 57.273 341.545 51.745 Q 339.456 46.217 337.573 40.484 Q 338.146 39.665 339.088 39.174 Q 340.03 38.682 341.094 38.682 Q 342.487 38.682 343.388 39.419 Q 344.288 40.156 344.862 41.876 Q 347.319 48.756 350.021 55.554 Q 352.724 62.351 356 69.64 L 356.328 69.64 Q 358.048 66.201 359.931 61.041 Q 361.815 55.881 363.535 50.148 Q 365.255 44.415 366.401 39.337 Q 366.975 39.092 367.671 38.887 Q 368.367 38.682 369.186 38.682 Q 370.578 38.682 371.479 39.378 Q 372.38 40.074 372.38 41.467 Q 372.38 42.777 371.643 45.848 Q 370.906 48.92 369.637 52.974 Q 368.367 57.028 366.688 61.573 Q 365.009 66.119 363.085 70.5 Q 361.16 74.882 359.194 78.404 Q 355.427 85.365 352.315 89.092 Q 349.202 92.818 346.582 92.818 Q 344.698 92.818 343.674 91.835 Q 342.65 90.852 342.405 89.542 Q 344.207 87.986 346.459 85.406 Q 348.711 82.826 350.8 79.837 Q 352.888 76.848 354.198 74.145 Q 352.806 73.735 351.619 72.671 Q 350.431 71.606 348.957 68.821 Z" style="line-height: 191.825px; text-wrap-mode: nowrap; fill: rgb(255, 255, 255);"/>
      <path d="M 239.973 160.878 Q 245.624 160.878 250.006 158.543 Q 254.388 156.209 256.886 151.623 Q 259.384 147.037 259.384 140.157 Q 259.384 133.032 256.722 128.527 Q 254.06 124.023 249.392 121.934 Q 244.724 119.846 238.745 119.846 Q 234.322 119.846 230.801 120.869 Q 227.279 121.893 224.904 123.286 Q 223.184 124.35 222.447 125.579 Q 221.71 126.807 221.71 128.691 L 221.71 155.554 L 231.783 155.554 L 231.783 129.674 Q 233.012 128.937 234.732 128.404 Q 236.452 127.872 238.745 127.872 Q 241.693 127.872 244.068 129.1 Q 246.443 130.329 247.795 132.991 Q 249.146 135.652 249.146 140.157 Q 249.146 146.627 246.28 149.698 Q 243.413 152.77 238.499 152.77 Q 235.551 152.77 233.38 151.746 Q 231.21 150.722 229.654 149.412 L 229.654 158.093 Q 231.374 159.158 234.036 160.018 Q 236.697 160.878 239.973 160.878 Z M 231.783 152.77 L 221.71 152.688 L 221.71 170.296 Q 221.71 172.917 223.061 173.982 Q 224.412 175.046 227.197 175.046 Q 228.671 175.046 229.9 174.842 Q 231.128 174.637 231.783 174.391 Z M 272.38 145.48 L 271.971 138.437 L 293.92 135.161 Q 293.674 132.049 291.545 129.756 Q 289.416 127.462 285.321 127.462 Q 281.144 127.462 278.359 130.37 Q 275.575 133.277 275.493 138.683 L 275.738 142.942 Q 276.475 148.183 279.792 150.64 Q 283.109 153.097 288.187 153.097 Q 291.627 153.097 294.575 152.073 Q 297.524 151.05 299.244 149.821 Q 300.39 150.558 301.086 151.664 Q 301.783 152.77 301.783 154.08 Q 301.783 156.209 299.899 157.724 Q 298.015 159.24 294.821 160.059 Q 291.627 160.878 287.532 160.878 Q 281.226 160.878 276.353 158.543 Q 271.48 156.209 268.736 151.541 Q 265.992 146.873 265.992 139.911 Q 265.992 134.915 267.548 131.148 Q 269.104 127.381 271.766 124.883 Q 274.428 122.385 277.95 121.115 Q 281.471 119.846 285.321 119.846 Q 290.726 119.846 294.78 122.016 Q 298.834 124.186 301.168 128.036 Q 303.502 131.885 303.502 136.881 Q 303.502 139.174 302.315 140.28 Q 301.127 141.385 298.998 141.631 Z M 326.875 153.261 Q 329.332 153.261 331.298 152.77 Q 333.264 152.278 334.165 151.705 L 334.165 142.368 L 326.056 143.187 Q 322.699 143.433 320.938 144.62 Q 319.177 145.808 319.177 148.101 Q 319.177 150.476 321.061 151.869 Q 322.944 153.261 326.875 153.261 Z M 326.466 119.846 Q 334.492 119.846 339.242 123.245 Q 343.993 126.643 343.993 133.933 L 343.993 152.77 Q 343.993 154.735 343.051 155.882 Q 342.109 157.028 340.635 157.929 Q 338.341 159.24 334.82 160.1 Q 331.298 160.96 326.875 160.96 Q 318.685 160.96 314.017 157.806 Q 309.349 154.653 309.349 148.429 Q 309.349 142.942 312.83 140.034 Q 316.31 137.127 322.944 136.471 L 334.083 135.325 L 334.083 133.851 Q 334.083 130.575 331.83 129.1 Q 329.578 127.626 325.483 127.626 Q 322.289 127.626 319.259 128.445 Q 316.228 129.264 313.853 130.411 Q 313.034 129.756 312.379 128.609 Q 311.724 127.462 311.724 126.234 Q 311.724 123.286 315 121.893 Q 317.293 120.829 320.364 120.337 Q 323.436 119.846 326.466 119.846 Z M 384.254 148.756 Q 384.254 154.489 379.996 157.724 Q 375.737 160.96 367.629 160.96 Q 361.077 160.96 356.9 158.994 Q 352.723 157.028 352.723 153.752 Q 352.723 152.36 353.378 151.172 Q 354.033 149.985 355.098 149.33 Q 357.391 150.804 360.422 151.951 Q 363.452 153.097 367.301 153.097 Q 374.263 153.097 374.263 148.838 Q 374.263 147.037 373.034 145.931 Q 371.806 144.825 369.267 144.334 L 364.598 143.105 Q 358.62 141.795 355.712 139.01 Q 352.805 136.226 352.805 131.557 Q 352.805 126.398 357.064 123.081 Q 361.322 119.764 368.857 119.764 Q 372.788 119.764 375.901 120.542 Q 379.013 121.32 380.774 122.794 Q 382.535 124.268 382.535 126.316 Q 382.535 127.708 381.92 128.814 Q 381.306 129.919 380.323 130.493 Q 379.34 129.919 377.661 129.223 Q 375.983 128.527 373.853 128.077 Q 371.724 127.626 369.594 127.626 Q 366.4 127.626 364.557 128.65 Q 362.715 129.674 362.715 131.557 Q 362.715 132.95 363.779 133.933 Q 364.844 134.915 367.383 135.489 L 371.56 136.471 Q 378.194 138.028 381.224 141.017 Q 384.254 144.006 384.254 148.756 Z M 398.388 150.476 Q 397.077 147.774 395.398 143.72 Q 393.719 139.666 391.918 134.301 Q 390.116 128.937 388.232 122.467 Q 389.133 121.484 390.525 120.829 Q 391.918 120.173 393.556 120.173 Q 395.685 120.173 397.036 121.115 Q 398.388 122.057 399.125 124.514 Q 401.254 130.902 403.424 137.127 Q 405.595 143.351 408.052 149.821 L 408.379 149.821 Q 409.936 146.218 411.492 141.344 Q 413.048 136.471 414.481 131.23 Q 415.914 125.988 416.897 121.238 Q 417.88 120.747 418.945 120.46 Q 420.009 120.173 421.238 120.173 Q 423.285 120.173 424.8 121.115 Q 426.316 122.057 426.316 124.268 Q 426.316 126.234 425.619 129.469 Q 424.923 132.704 423.695 136.635 Q 422.466 140.566 420.869 144.825 Q 419.272 149.084 417.511 153.056 Q 415.75 157.028 413.949 160.222 Q 409.772 167.675 406.25 171.484 Q 402.728 175.292 399.452 175.292 Q 396.913 175.292 395.316 173.777 Q 393.719 172.262 393.392 170.05 Q 395.194 168.494 397.2 166.324 Q 399.207 164.154 401.09 161.697 Q 402.974 159.24 404.284 156.865 Q 402.892 156.455 401.5 155.186 Q 400.108 153.916 398.388 150.476 Z" style="line-height: 191.825px; text-wrap-mode: nowrap; fill: rgb(255, 255, 255);"/>
    </g>
  </g>
</svg>